<svg width="18" height="18" viewBox="0 0 18 18" xmlns="http://www.w3.org/2000/svg">
  <g fill="none" fill-rule="evenodd">
    <path d="M17.64 9.2045c0-.632-.056-1.246-.165-1.841H9v3.481h4.844a4.14 4.14 0 0 1-1.796 2.725v2.258h2.908c1.702-1.567 2.684-3.875 2.684-6.623z" fill="#4285F4"/>
    <path d="M9 18c2.43 0 4.467-.806 5.956-2.18l-2.908-2.258c-.806.54-1.837.86-2.956.86-2.271 0-4.184-1.528-4.868-3.57H1.095v2.329A8.997 8.997 0 0 0 9 18z" fill="#34A853"/>
    <path d="M4.132 10.732a5.297 5.297 0 0 1 0-3.464V4.94H1.095a8.997 8.997 0 0 0 0 8.12l3.037-2.328z" fill="#FBBC05"/>
    <path d="M9 3.579c1.321 0 2.508.454 3.44 1.345l2.581-2.58C13.463.891 11.426 0 9 0A8.997 8.997 0 0 0 1.095 4.94l3.037 2.329c.684-2.042 2.597-3.579 4.868-3.579z" fill="#EA4335"/>
  </g>
</svg>