<svg id="Layer_1" data-name="Layer 1" xmlns="http://www.w3.org/2000/svg" xmlns:xlink="http://www.w3.org/1999/xlink" viewBox="0 0 384.5 395.48">
  <defs>
    <style>
      .cls-1 {
        fill: #747574;
      }

      .cls-2 {
        fill: #b76451;
      }

      .cls-3 {
        fill: #c23e37;
      }

      .cls-4 {
        fill: #d3755b;
      }

      .cls-5 {
        fill: #f68c6b;
      }

      .cls-6 {
        clip-path: url(#clippath);
      }

      .cls-7 {
        fill: none;
      }

      .cls-8 {
        fill: #f7d759;
      }

      .cls-9 {
        fill: #666;
      }

      .cls-10 {
        fill: #fefefe;
      }
    </style>
    <clipPath id="clippath">
      <rect class="cls-7" x=".25" y="11.48" width="384" height="384"></rect>
    </clipPath>
  </defs>
  <g class="cls-6">
    <g>
      
      <path d="M373.97,171.58c11.34,42.74-5.24,88.46-41.61,114.53-1.98,1.42-2.97,2.83-2.87,5.4,.22,6.1,.1,12.22,.04,18.33-.01,1.49,.13,2.38,1.89,2.9,3,.89,4.14,3.29,4.13,6.36-.02,17.45,.02,34.91-.03,52.36-.01,4.39-2.32,6.68-6.72,6.69-17.45,.05-34.91,.05-52.37,0-4.41-.01-6.7-2.29-6.71-6.68-.05-17.46,0-34.91-.03-52.37-.01-2.88,.91-5.44,3.78-6.18,3.5-.91,2.15-3.43,2.13-5.31-.03-2.66-2.29-1.16-3.44-1.23-3.73-.19-7.49,.13-11.22-.1-2.59-.15-3.32,.55-3.29,3.22,.15,13.84,0,27.68,.14,41.52,.02,2.58-.55,3.33-3.22,3.29-8.82-.14-8.82-.01-8.82-8.85,0-12.09-.06-24.19,.06-36.28,.02-2.27-.49-2.93-2.85-2.9-10.1,.15-20.2,.14-30.3,.01-2.28-.03-2.91,.5-2.89,2.85,.13,13.96-.01,27.93,.13,41.89,.03,2.6-.57,3.31-3.23,3.27-8.81-.13-8.81-.01-8.81-8.85,0-12.1-.06-24.19,.06-36.28,.02-2.3-.53-2.9-2.86-2.88-14.09,.12-28.18,.06-42.27,.06v-.06c-13.96,0-27.93-.02-41.89,.05-.98,0-2.98-.99-2.73,1.2,.18,1.66-1.6,4.02,1.39,5,3.31,1.07,4.53,3.5,4.52,6.89-.05,17.21,0,34.41-.04,51.62-.01,4.88-2.21,7.1-7.06,7.11-17.21,.03-34.41,.03-51.62,0-4.9-.01-7.13-2.19-7.14-7.02-.03-17.21,.02-34.42-.04-51.62-.01-3.37,1.09-5.94,4.45-6.9,1.46-.42,1.59-1.14,1.58-2.35-.04-6.74-.1-13.47,.04-20.2,.03-1.85-.96-2.59-2.21-3.49-23.38-16.81-38.64-39.21-43.56-67.59-7.63-43.97,6.89-79.84,42.11-107.21,2.63-2.04,3.76-3.93,3.68-7.26-.22-10.1-.1-20.2-.07-30.3,.02-5.14,2.14-7.27,7.25-7.29,6.73-.04,13.47-.07,20.2,.03,1.88,.03,2.49-.41,2.53-2.44,.21-9.57,.29-9.57-9.19-9.57-7.16-.01-8.82-1.65-8.82-8.74-.01-10.6-.02-21.2,0-31.79,.02-5.17,2.13-7.34,7.2-7.35,27.18-.02,54.36-.02,81.54,0,4.83,.01,7.01,2.25,7.02,7.15,.04,11.22,.04,22.45,0,33.67-.02,4.84-2.24,6.97-7.12,7.06h-1.5c-9.83,.01-9.77,0-9.38,9.76,.07,1.84,.61,2.27,2.35,2.25,6.73-.1,13.46-.06,20.19-.03,5.34,.02,7.41,2.11,7.44,7.49,.03,4.73,.09,9.47-.03,14.21-.05,1.83,.53,2.3,2.3,2.27,6.49-.1,12.97-.11,19.45,0,1.84,.03,2.51-.55,2.24-2.31-.04-.25-.01-.5-.01-.75,.11-9.91,.11-9.86,10.14-9,1.48,.13,2.02,.55,1.84,1.96-.03,.25-.01,.5-.01,.75,.07,2.97-1.01,6.94,.5,8.65,1.77,2.02,5.84,.59,8.91,.63,7.85,.1,15.71-.08,23.56,.1,2.54,.06,3.02-.77,3.01-3.11-.03-9.93,.04-9.88,10.1-8.98,1.51,.13,1.99,.61,1.82,1.99-.03,.24-.03,.5,0,.74,.29,3.05-1.43,7.25,.71,8.86,2,1.51,5.98,.43,9.08,.43,51.31,.01,93.53,32.03,106.45,80.72Zm-42.87,100.49c51.11-42.54,43.86-123.74-13.94-156.64-17.2-9.79-35.73-13.28-55.31-12.7-3.36,.1-4.22,.84-4.21,4.23,.12,57.23,.08,114.45,.09,171.68,0,1.25,.07,2.49,.11,3.73-.04,3.34-.04,6.67-.13,10.01-.04,1.32,.22,2.06,1.79,2.02,4.7-.12,9.4-.14,14.09-.15,1.58,0,2.17-.66,2.11-2.24-.11-3.21-.1-6.43-.14-9.64,.04-7.47,.07-14.95,.13-22.43,.03-5.36,2.1-7.45,7.46-7.46,12.85-.02,25.69-.01,38.53,0,5.87,0,7.85,1.98,7.87,7.81,.02,4.14,.01,8.28,.01,12.88,.94-.67,1.26-.87,1.54-1.1Zm-7.49,54.96c.02-2.11-.65-2.78-2.76-2.76-12.56,.11-25.11,.11-37.67,.15-1.86-.14-1.5,1.26-1.5,2.29-.02,12.31,.02,24.63-.04,36.94,0,1.94,.63,2.59,2.58,2.58,12.31-.06,24.63-.02,36.94-.04,1.03,0,2.43,.36,2.29-1.5,.04-12.55,.04-25.11,.16-37.66Zm-5.96-59.87c.03-2.52-.97-2.8-3.05-2.75-5.47,.11-10.95-.06-16.42,.07-3.43,.08-8.09-1.58-9.96,.69-1.95,2.37-.53,6.9-.44,10.48-.04,11.44-.06,22.87-.15,34.3-.01,1.71,.46,2.43,2.3,2.41,8.45-.07,16.9-.06,25.36,0,1.71,0,2.65-.4,2.2-2.31,.03-14.29,0-28.59,.16-42.89ZM236.68,114.8c9.28,0,9.17,0,9.15-9.27-.01-2.5-.9-2.8-3.01-2.74-4.98,.13-9.97,.04-14.95,.04h-8.97c-9.28,0-9.16,0-9.14,9.27,0,2.51,.9,2.78,3,2.75,7.98-.11,15.95-.05,23.92-.05Zm9.08,165.72c.64-3.42-.79-4.28-4.14-4.19-8.72,.25-17.44,.09-26.16,.09q-5.81,0-5.51,5.95c-.04,3.12,.04,6.24-.16,9.34-.13,2.1,.54,2.75,2.68,2.71,7.35-.12,14.7,.04,22.05-.08,3.68-.06,8.88,1.66,10.64-.73,1.84-2.51,.45-7.39,.47-11.24,.04-.62,.02-1.25,.13-1.85Zm-2.34-16.04c1.69,.03,2.43-.3,2.38-2.21-.14-4.48-.12-8.97,0-13.46,.03-1.7-.33-2.38-2.23-2.36-10.46,.09-20.93,.11-31.39-.02-2.17-.02-2.4,.85-2.37,2.61,.1,4.24,.21,8.48-.03,12.71-.15,2.53,.9,2.79,3,2.74,4.98-.13,9.97-.04,14.95-.04,5.23,0,10.47-.06,15.7,.03Zm-.01-29.93c1.67,.03,2.45-.28,2.39-2.2-.15-4.48-.11-8.97-.02-13.46,.04-1.68-.3-2.39-2.21-2.37-10.46,.09-20.93,.11-31.39-.01-2.15-.03-2.42,.82-2.38,2.59,.1,4.24,.21,8.49-.03,12.71-.15,2.52,.88,2.81,2.99,2.75,5.11-.13,10.22-.04,15.33-.04s10.21-.06,15.32,.03Zm.11-29.92c1.83,.01,2.31-.56,2.27-2.32-.12-4.48-.13-8.97,0-13.45,.06-1.85-.58-2.3-2.33-2.26-5.23,.1-10.46,.03-15.7,.03s-10.22,.11-15.32-.05c-2.16-.06-2.73,.63-2.65,2.71,.15,4.23,.11,8.47,0,12.7-.03,1.74,.13,2.68,2.32,2.65,10.47-.12,20.93-.09,31.4-.01Zm-.02-29.93c1.79,.01,2.34-.5,2.29-2.3-.12-4.48-.12-8.97,0-13.45,.05-1.81-.52-2.32-2.3-2.29-5.23,.11-10.47,.04-15.7,.04s-10.47,.08-15.7-.04c-1.8-.03-2.34,.5-2.3,2.3,.12,4.48,.13,8.97,0,13.45-.05,1.81,.53,2.3,2.31,2.29,10.46-.08,20.93-.08,31.4,0Zm-.01-29.93c1.79,.04,2.35-.48,2.3-2.29-.12-4.48-.12-8.97,0-13.45,.05-1.81-.51-2.31-2.3-2.29-10.46,.08-20.93,.08-31.4,0-1.78-.02-2.34,.48-2.3,2.29,.13,4.48,.13,8.97,0,13.45-.04,1.8,.51,2.33,2.3,2.29,5.23-.11,10.47-.04,15.7-.04s10.47-.07,15.7,.04Zm-45.63,136.12c0-58.36-.03-116.72,.08-175.08,0-2.99-1.23-3.02-3.49-3.02-26.06,.06-52.13,.07-78.19,.02-6.38,0-12.71,.34-18.98,1.52-20,3.79-37.39,12.52-51.46,27.44-.4,.29-.85,.53-1.18,.88-33.75,34.94-35.17,91.82-3.21,128.36,3.73,4.26,7.65,8.34,12.18,11.68,.34-.3,.5-.37,.5-.45,.04-3.74,.07-7.47,.08-11.21,.02-6.69,1.55-8.31,8.25-8.66,12.84,.03,25.68,.05,38.52,.12,4.88,.02,7.05,2.2,7.1,7.07,.07,6.61,.09,13.22,.13,19.82-.04,3.36,.19,6.74-.19,10.06-.45,3.93,1.01,5,4.83,4.98,24.62-.13,49.24-.05,73.85-.06,3.59,0,8.7,1.28,10.39-.55,2.36-2.55,.67-7.51,.67-11.44,.04-.49,.12-.99,.12-1.48Zm-35.84-198.43c.07-3.01-.86-3.65-3.71-3.63-23.43,.11-46.85,.06-70.27,.06-6.35,0-12.71,.06-19.06-.04-1.92-.02-2.92,.23-2.87,2.56,.15,6.72,.06,13.45,.06,20.69,.93-.38,1.39-.53,1.82-.74,15.91-7.58,32.71-10.82,50.3-10.54,11.71,.2,23.42,.04,35.13,.04,8.56,0,8.41,0,8.6-8.4Zm-14.34-39.45c1.77,.01,2.36-.48,2.33-2.29-.1-6.48-.1-12.96,0-19.43,.03-1.83-.58-2.3-2.34-2.29-22.42,.09-44.84,.11-67.26,.15-1.89-.5-2.32,.37-2.3,2.13,.07,6.47,.08,12.94-.01,19.41-.02,1.81,.58,2.34,2.35,2.32,9.45-.12,18.91-.12,28.37-.16,12.95,.04,25.91,.05,38.86,.16Zm-24.61,23.91c9.22,0,9.12,0,9.01-9.13-.03-2.36-.77-2.92-3-2.89-8.07,.12-16.15,.05-24.23,.05-9.14,0-9.07-.01-8.81,9.32,.06,2.16,.74,2.74,2.8,2.69,5.09-.12,10.19-.04,15.28-.04h8.95Zm-20.95,260.11c.02-2.11-.65-2.78-2.76-2.76-12.55,.11-25.11,.11-37.66,.15-1.87-.14-1.51,1.26-1.51,2.29-.02,12.31,.02,24.63-.04,36.94-.01,1.94,.63,2.59,2.58,2.58,12.31-.06,24.63-.02,36.95-.04,1.03,0,2.42,.36,2.29-1.5,.03-12.55,.03-25.11,.15-37.66Zm-5.96-59.87c.03-2.52-.97-2.8-3.05-2.75-5.47,.11-10.95-.06-16.41,.07-3.43,.08-8.1-1.58-9.97,.69-1.95,2.37-.53,6.9-.44,10.48-.04,11.44-.06,22.87-.15,34.3-.01,1.71,.46,2.43,2.3,2.41,8.45-.07,16.9-.06,25.36,0,1.71,0,2.65-.4,2.2-2.31,.03-14.29,0-28.59,.16-42.89Z" data-index="1" style="opacity: 1;"></path>
      <path class="cls-5" d="M317.16,115.43c57.8,32.9,65.05,114.1,13.94,156.64-.28,.23-.6,.43-1.54,1.1,0-4.6,.01-8.74-.01-12.88-.02-5.83-2-7.81-7.87-7.81-12.84-.01-25.68-.02-38.53,0-5.36,.01-7.43,2.1-7.46,7.46-.06,7.48-.09,14.96-.13,22.43h-17.72c-.04-1.24-.11-2.48-.11-3.73-.01-57.23,.03-114.45-.09-171.68,0-3.39,.85-4.13,4.21-4.23,19.58-.58,38.11,2.91,55.31,12.7Z" data-index="2" style="opacity: 1;"></path>
      <path class="cls-1" d="M320.85,324.27c2.11-.02,2.78,.65,2.76,2.76-.12,12.55-.12,25.11-.16,37.66-4.22-.58-8.15-2.21-11.84-4.16-14.75-7.83-24.6-19.63-28.43-36.11,12.56-.04,25.11-.04,37.67-.15Z" data-index="3" style="opacity: 1;"></path>
      <path class="cls-9" d="M323.45,364.69c.14,1.86-1.26,1.5-2.29,1.5-12.31,.02-24.63-.02-36.94,.04-1.95,.01-2.59-.64-2.58-2.58,.06-12.31,.02-24.63,.04-36.94,0-1.03-.36-2.43,1.5-2.29-1.09,1.6-.24,3.17,.25,4.61,6.21,18.01,18.45,29.9,36.53,35.81,1.15,.38,2.38,.91,3.49-.15Z" data-index="4" style="opacity: 1;"></path>
      <path class="cls-9" d="M323.45,364.69c-1.11,1.06-2.34,.53-3.49,.15-18.08-5.91-30.32-17.8-36.53-35.81-.49-1.44-1.34-3.01-.25-4.61,3.83,16.48,13.68,28.28,28.43,36.11,3.69,1.95,7.62,3.58,11.84,4.16Z" data-index="5"></path>
      <path class="cls-5" d="M314.6,264.41c2.08-.05,3.08,.23,3.05,2.75-.16,14.3-.13,28.6-.16,42.89-9.79-2.05-16.75-8.11-22.45-15.91-3.76-5.16-5.57-11.13-6.97-17.24-.01-.01-.01-.02-.01-.02-.03-.41-.11-.82-.28-1.23-.09-3.58-1.51-8.11,.44-10.48,1.87-2.27,6.53-.61,9.96-.69,5.47-.13,10.95,.04,16.42-.07Z" data-index="6" style="opacity: 1;"></path>
      <path class="cls-2" d="M317.49,310.05c.45,1.91-.49,2.32-2.2,2.31-8.46-.06-16.91-.07-25.36,0-1.84,.02-2.31-.7-2.3-2.41,.09-11.43,.11-22.86,.15-34.3,.09,.41,.18,.82,.28,1.23,0,0,0,.01,.01,.02,.08,1.05-.12,2.13,.1,3.18,3.16,14.72,12.12,24.46,25.82,30.13,1.13,.47,2.38,.91,3.5-.16Z" data-index="7"></path>
      <path class="cls-2" d="M317.49,310.05c-1.12,1.07-2.37,.63-3.5,.16-13.7-5.67-22.66-15.41-25.82-30.13-.22-1.05-.02-2.13-.1-3.18,1.4,6.11,3.21,12.08,6.97,17.24,5.7,7.8,12.66,13.86,22.45,15.91Z" data-index="8"></path>
      <path d="M288.06,276.88c-.1-.41-.19-.82-.28-1.23,.17,.41,.25,.82,.28,1.23Z" data-index="9"></path>
      <path class="cls-2" d="M275.7,292.01c.06,1.58-.53,2.24-2.11,2.24-4.69,.01-9.39,.03-14.09,.15-1.57,.04-1.83-.7-1.79-2.02,.09-3.34,.09-6.67,.13-10.01,4.34,2.37,9.03,.78,13.54,1.17,1.46,.13,3.01,.03,4.18-1.17,.04,3.21,.03,6.43,.14,9.64Z" data-index="10"></path>
      <path class="cls-2" d="M257.84,282.37h17.72c-1.17,1.2-2.72,1.3-4.18,1.17-4.51-.39-9.2,1.2-13.54-1.17Z" data-index="11"></path>
      <path class="cls-5" d="M245.83,105.53c.02,9.27,.13,9.27-9.15,9.27-7.97,0-15.94-.06-23.92,.05-2.1,.03-3-.24-3-2.75-.02-9.27-.14-9.27,9.14-9.27h8.97c4.98,0,9.97,.09,14.95-.04,2.11-.06,3,.24,3.01,2.74Z" data-index="12" style="opacity: 1;"></path>
      <path class="cls-5" d="M241.62,276.33c3.35-.09,4.78,.77,4.14,4.19-.11,.6-.09,1.23-.13,1.85-1.18-1.17-2.72-1.14-4.2-1.14-9.09-.06-18.18-.06-27.27,0-1.49,0-3.02-.03-4.21,1.14q-.3-5.95,5.51-5.95c8.72,0,17.44,.16,26.16-.09Z" data-index="13"></path>
      <path class="cls-5" d="M245.8,262.27c.05,1.91-.69,2.24-2.38,2.21-5.23-.09-10.47-.03-15.7-.03s-9.97-.09-14.95,.04c-2.1,.05-3.15-.21-3-2.74,.24-4.23,.13-8.47,.03-12.71-.03-1.76,.2-2.63,2.37-2.61,10.46,.13,20.93,.11,31.39,.02,1.9-.02,2.26,.66,2.23,2.36-.11,4.49-.13,8.98,0,13.46Z" data-index="14"></path>
      <path class="cls-5" d="M245.8,232.35c.06,1.92-.72,2.23-2.39,2.2-5.11-.09-10.22-.03-15.32-.03s-10.22-.09-15.33,.04c-2.11,.06-3.14-.23-2.99-2.75,.24-4.22,.13-8.47,.03-12.71-.04-1.77,.23-2.62,2.38-2.59,10.46,.12,20.93,.1,31.39,.01,1.91-.02,2.25,.69,2.21,2.37-.09,4.49-.13,8.98,.02,13.46Z" data-index="15" style="opacity: 1;"></path>
      <path class="cls-5" d="M245.79,202.31c.04,1.76-.44,2.33-2.27,2.32-10.47-.08-20.93-.11-31.4,.01-2.19,.03-2.35-.91-2.32-2.65,.1-4.23,.14-8.47,0-12.7-.08-2.08,.49-2.77,2.65-2.71,5.1,.16,10.22,.05,15.32,.05s10.47,.07,15.7-.03c1.75-.04,2.39,.41,2.33,2.26-.13,4.48-.12,8.97,0,13.45Z" data-index="16"></path>
      <path class="cls-5" d="M245.79,172.4c.05,1.8-.5,2.31-2.29,2.3-10.47-.08-20.94-.08-31.4,0-1.78,.01-2.36-.48-2.31-2.29,.13-4.48,.12-8.97,0-13.45-.04-1.8,.5-2.33,2.3-2.3,5.23,.12,10.47,.04,15.7,.04s10.47,.07,15.7-.04c1.78-.03,2.35,.48,2.3,2.29-.12,4.48-.12,8.97,0,13.45Z" data-index="17"></path>
      <path class="cls-5" d="M245.79,142.48c.05,1.81-.51,2.33-2.3,2.29-5.23-.11-10.46-.04-15.7-.04s-10.47-.07-15.7,.04c-1.79,.04-2.34-.49-2.3-2.29,.13-4.48,.13-8.97,0-13.45-.04-1.81,.52-2.31,2.3-2.29,10.47,.08,20.94,.08,31.4,0,1.79-.02,2.35,.48,2.3,2.29-.12,4.48-.12,8.97,0,13.45Z" data-index="18" style="opacity: 1;"></path>
      <path class="cls-2" d="M245.63,282.37c-.02,3.85,1.37,8.73-.47,11.24-1.76,2.39-6.96,.67-10.64,.73-7.35,.12-14.7-.04-22.05,.08-2.14,.04-2.81-.61-2.68-2.71,.2-3.1,.12-6.22,.16-9.34h35.68Z" data-index="19" style="opacity: 1;"></path>
      <path class="cls-2" d="M245.63,282.37h-35.68c1.19-1.17,2.72-1.14,4.21-1.14,9.09-.06,18.18-.06,27.27,0,1.48,0,3.02-.03,4.2,1.14Z" data-index="20"></path>
      <path class="cls-5" d="M197.94,105.81c-.11,58.36-.08,116.72-.08,175.08,0,.49-.08,.99-.12,1.48-22.76,.01-45.53,.06-68.29,0-7.21-.02-14.29-1.19-21.26-2.99-.04-6.6-.06-13.21-.13-19.82-.05-4.87-2.22-7.05-7.1-7.07-12.84-.07-25.68-.09-38.52-.12-11.69-12.38-19.44-26.89-23.61-43.36-2.99-11.82-2.72-23.87-2.58-35.91,.11-9.1,1.41-18.03,4.33-26.67,1.66-4.92,3.49-9.77,5.24-14.66,14.07-14.92,31.46-23.65,51.46-27.44,6.27-1.18,12.6-1.53,18.98-1.52,26.06,.05,52.13,.04,78.19-.02,2.26,0,3.49,.03,3.49,3.02Zm-37.85,116c3.87-14.83,.8-29.14-4.23-43.14-6.29-17.47-19.42-30.22-30.98-44.01-2.73-3.26-7.21-2.42-9.4,1.38-2.17,3.76-4.14,7.65-6.03,11.56-2.81,5.77-6.13,11.15-11.36,15.04-14.07,10.47-20.59,24.52-20.1,41.94-.06,3.99-.06,7.95,.52,11.93,2.74,18.93,19.76,34.66,38.99,35.9,19.35,1.26,37.66-11.75,42.59-30.6Z" data-index="21" style="opacity: 1;"></path>
      <path class="cls-2" d="M197.74,282.37c0,3.93,1.69,8.89-.67,11.44-1.69,1.83-6.8,.55-10.39,.55-24.61,0-49.23-.07-73.85,.06-3.82,.02-5.28-1.05-4.83-4.98,.38-3.32,.15-6.7,.19-10.06,.93,1.32,2.33,1.77,3.82,2.1,5.35,1.23,10.79,2.02,16.25,2.06,21.52,.14,43.04,.06,64.55,.04,1.72-.01,3.53,.17,4.93-1.21Z" data-index="22"></path>
      <path class="cls-2" d="M197.74,282.37c-1.4,1.38-3.21,1.2-4.93,1.21-21.51,.02-43.03,.1-64.55-.04-5.46-.04-10.9-.83-16.25-2.06-1.49-.33-2.89-.78-3.82-2.1,6.97,1.8,14.05,2.97,21.26,2.99,22.76,.06,45.53,.01,68.29,0Z" data-index="23"></path>
      <path class="cls-5" d="M158.31,78.83c2.85-.02,3.78,.62,3.71,3.63-.19,8.4-.04,8.4-8.6,8.4-11.71,0-23.42,.16-35.13-.04-17.59-.28-34.39,2.96-50.3,10.54-.43,.21-.89,.36-1.82,.74,0-7.24,.09-13.97-.06-20.69-.05-2.33,.95-2.58,2.87-2.56,6.35,.1,12.71,.04,19.06,.04,23.42,0,46.84,.05,70.27-.06Z" data-index="24"></path>
      <path d="M155.86,178.67c5.03,14,8.1,28.31,4.23,43.14-4.93,18.85-23.24,31.86-42.59,30.6-19.23-1.24-36.25-16.97-38.99-35.9-.58-3.98-.58-7.94-.52-11.93-.49-17.42,6.03-31.47,20.1-41.94,5.23-3.89,8.55-9.27,11.36-15.04,1.89-3.91,3.86-7.8,6.03-11.56,2.19-3.8,6.67-4.64,9.4-1.38,11.56,13.79,24.69,26.54,30.98,44.01Zm-6.69,38.4c2.08-10.87-.22-21.28-3.55-31.56-4.45-13.69-13.82-24.09-23.06-34.56-1.92-2.18-2.13,.54-2.54,1.39-3.51,7.39-7.54,14.54-14.24,19.42-15.91,11.59-17.64,27.6-14.59,45.13,.68,3.87,2.29,7.62,5.79,11.15-.26-2.34-.42-3.81-.6-5.29-1.37-11.73,.66-22.07,11.28-29.27,4.15-2.82,6.11-7.17,6.34-12.16,.14-3.07,1.27-5.39,4.26-6.34,3.2-1.02,5.46,.48,7.32,3.06,2.9,4.05,5.98,7.97,8.92,12,4.77,6.56,7.71,13.85,8.96,21.9,.83,5.42,.4,10.77-.25,17.03,3.45-3.95,5.17-7.76,5.96-11.9Zm-18.18,11.32c2.6-12.56,.15-23.89-8.36-34.2-2.55,4.25-5.71,7.53-9.49,10.25-3.59,2.58-5.16,6.2-5.08,10.63,.1,5.23,.56,10.41,1.35,15.58,1.41,9.2,3.07,10.53,12.52,9.76,.86-.07,1.71-.34,2.58-.38,3.49-.14,5.44-1.59,5.42-5.41,0-2.08,.64-4.17,1.06-6.23Z" data-index="25" style="opacity: 1;"></path>
      <path class="cls-5" d="M150.01,40.72c.03,1.81-.56,2.3-2.33,2.29-12.95-.11-25.91-.12-38.86-.16-.44-.2-.86-.48-1.32-.58-13.22-2.8-22.36-10.37-27.09-23.12,22.42-.04,44.84-.06,67.26-.15,1.76-.01,2.37,.46,2.34,2.29-.1,6.47-.1,12.95,0,19.43Z" data-index="26"></path>
      <path class="cls-3" d="M145.62,185.51c3.33,10.28,5.63,20.69,3.55,31.56-.79,4.14-2.51,7.95-5.96,11.9,.65-6.26,1.08-11.61,.25-17.03-1.25-8.05-4.19-15.34-8.96-21.9-2.94-4.03-6.02-7.95-8.92-12-1.86-2.58-4.12-4.08-7.32-3.06-2.99,.95-4.12,3.27-4.26,6.34-.23,4.99-2.19,9.34-6.34,12.16-10.62,7.2-12.65,17.54-11.28,29.27,.18,1.48,.34,2.95,.6,5.29-3.5-3.53-5.11-7.28-5.79-11.15-3.05-17.53-1.32-33.54,14.59-45.13,6.7-4.88,10.73-12.03,14.24-19.42,.41-.85,.62-3.57,2.54-1.39,9.24,10.47,18.61,20.87,23.06,34.56Z" data-index="27"></path>
      <path class="cls-2" d="M132.08,57.79c.11,9.13,.21,9.13-9.01,9.13h-8.95c-5.09,0-10.19-.08-15.28,.04-2.06,.05-2.74-.53-2.8-2.69-.26-9.33-.33-9.32,8.81-9.32,8.08,0,16.16,.07,24.23-.05,2.23-.03,2.97,.53,3,2.89Z" data-index="28"></path>
      <path class="cls-8" d="M122.63,194.19c8.51,10.31,10.96,21.64,8.36,34.2-.42,2.06-1.06,4.15-1.06,6.23,.02,3.82-1.93,5.27-5.42,5.41-.87,.04-1.72,.31-2.58,.38-9.45,.77-11.11-.56-12.52-9.76-.79-5.17-1.25-10.35-1.35-15.58-.08-4.43,1.49-8.05,5.08-10.63,3.78-2.72,6.94-6,9.49-10.25Z" data-index="29" style="opacity: 1;"></path>
      <path class="cls-4" d="M107.5,42.27c.46,.1,.88,.38,1.32,.58-13.22-1.15-21.97-8.58-27.87-19.94-.59-1.13-1.6-2.33-.54-3.76,4.73,12.75,13.87,20.32,27.09,23.12Z" data-index="30"></path>
      <path class="cls-1" d="M99.36,324.27c2.11-.02,2.78,.65,2.76,2.76-.12,12.55-.12,25.11-.15,37.66-4.23-.58-8.16-2.21-11.85-4.16-14.75-7.83-24.6-19.63-28.42-36.11,12.55-.04,25.11-.04,37.66-.15Z" data-index="31" style="opacity: 1;"></path>
      <path class="cls-9" d="M101.97,364.69c.13,1.86-1.26,1.5-2.29,1.5-12.32,.02-24.64-.02-36.95,.04-1.95,.01-2.59-.64-2.58-2.58,.06-12.31,.02-24.63,.04-36.94,0-1.03-.36-2.43,1.51-2.29-1.1,1.6-.25,3.17,.25,4.61,6.2,18.01,18.44,29.9,36.52,35.81,1.15,.38,2.38,.91,3.5-.15Z" data-index="32" style="opacity: 1;"></path>
      <path class="cls-9" d="M101.97,364.69c-1.12,1.06-2.35,.53-3.5,.15-18.08-5.91-30.32-17.8-36.52-35.81-.5-1.44-1.35-3.01-.25-4.61,3.82,16.48,13.67,28.28,28.42,36.11,3.69,1.95,7.62,3.58,11.85,4.16Z" data-index="33"></path>
      <path class="cls-5" d="M93.11,264.41c2.08-.05,3.08,.23,3.05,2.75-.16,14.3-.13,28.6-.16,42.89-9.79-2.05-16.75-8.11-22.45-15.91-3.76-5.16-5.57-11.13-6.97-17.24,0-.01,0-.02,0-.02-.03-.41-.11-.82-.28-1.23-.09-3.58-1.51-8.11,.44-10.48,1.87-2.27,6.54-.61,9.97-.69,5.46-.13,10.94,.04,16.41-.07Z" data-index="34"></path>
      <path class="cls-2" d="M96,310.05c.45,1.91-.49,2.32-2.2,2.31-8.46-.06-16.91-.07-25.36,0-1.84,.02-2.31-.7-2.3-2.41,.09-11.43,.11-22.86,.15-34.3,.09,.41,.18,.82,.28,1.23,0,0,0,.01,0,.02,.08,1.05-.12,2.13,.1,3.18,3.16,14.72,12.12,24.46,25.82,30.13,1.13,.47,2.38,.91,3.5-.16Z" data-index="35"></path>
      <path class="cls-2" d="M96,310.05c-1.12,1.07-2.37,.63-3.5,.16-13.7-5.67-22.66-15.41-25.82-30.13-.22-1.05-.02-2.13-.1-3.18,1.4,6.11,3.21,12.08,6.97,17.24,5.7,7.8,12.66,13.86,22.45,15.91Z" data-index="36"></path>
      <path class="cls-2" d="M80.95,22.91c5.9,11.36,14.65,18.79,27.87,19.94-9.46,.04-18.92,.04-28.37,.16-1.77,.02-2.37-.51-2.35-2.32,.09-6.47,.08-12.94,.01-19.41-.02-1.76,.41-2.63,2.3-2.13-1.06,1.43-.05,2.63,.54,3.76Z" data-index="37"></path>
      <path d="M66.57,276.88c-.1-.41-.19-.82-.28-1.23,.17,.41,.25,.82,.28,1.23Z" data-index="38"></path>
      <path class="cls-2" d="M62.44,252.37c-1.93-.74-3.37-2.06-4.66-3.64-14.79-18.15-22.54-38.86-22.58-62.35,0-9.84-.38-19.7,1.62-29.43,1.81-8.82,4.17-17.44,9-25.18-1.75,4.89-3.58,9.74-5.24,14.66-2.92,8.64-4.22,17.57-4.33,26.67-.14,12.04-.41,24.09,2.58,35.91,4.17,16.47,11.92,30.98,23.61,43.36Z" data-index="39"></path>
      <path class="cls-2" d="M57.78,248.73c1.29,1.58,2.73,2.9,4.66,3.64-6.7,.35-8.23,1.97-8.25,8.66-.01,3.74-.04,7.47-.08,11.21,0,.08-.16,.15-.5,.45-4.53-3.34-8.45-7.42-12.18-11.68-31.96-36.54-30.54-93.42,3.21-128.36,.33-.35,.78-.59,1.18-.88-4.83,7.74-7.19,16.36-9,25.18-2,9.73-1.63,19.59-1.62,29.43,.04,23.49,7.79,44.2,22.58,62.35Z" data-index="40" style="opacity: 1;"></path>
    </g>
  </g>
</svg>